<svg width="100" height="100" viewBox="0 0 24 24" xmlns="http://www.w3.org/2000/svg" fill="currentColor">
  <circle cx="12" cy="12" r="10" fill="#E60023"/>
  <path d="M12.07 3c-3.71 0-6.58 2.75-6.58 6.33 0 2.52 1.66 3.94 2.77 3.94.43 0 .68-1.11.68-1.42 0-.37-.95-1.18-.95-2.75 0-3.18 2.39-5.41 5.56-5.41 2.7 0 4.58 1.62 4.58 4.24 0 2.6-1.08 6.36-4.58 6.36-1.26 0-2.2-.89-1.9-2.29.36-1.54 1.06-3.22 1.06-4.34 0-1.01-.53-1.84-1.63-1.84-1.29 0-2.33 1.33-2.33 3.11 0 1.14.39 1.91.39 1.91s-1.26 5.33-1.47 6.24c-.14.6-.23 1.36-.23 2.03 0 .58.08.69.47.72 3.87-2.9 5.69-6.97 5.69-10.77C18.62 6.13 15.6 3 12.07 3z" fill="#fff"/>
</svg>
